<?xml version="1.0" standalone="no"?>
<!DOCTYPE svg PUBLIC "-//W3C//DTD SVG 20010904//EN"
 "http://www.w3.org/TR/2001/REC-SVG-20010904/DTD/svg10.dtd">
<svg version="1.0" xmlns="http://www.w3.org/2000/svg"
 width="512.000000pt" height="512.000000pt" viewBox="0 0 512.000000 512.000000"
 preserveAspectRatio="xMidYMid meet">
<metadata>
Created by potrace 1.11, written by Peter Selinger 2001-2013
</metadata>
<g transform="translate(0.000000,512.000000) scale(0.100000,-0.100000)"
fill="#000000" stroke="none">
<path d="M2487 5106 c-20 -7 -70 -37 -109 -66 l-72 -53 -710 -1 -711 -1 -45
-27 c-53 -31 -77 -57 -97 -107 -13 -30 -15 -112 -15 -513 l0 -478 -72 -53
c-75 -56 -415 -302 -452 -327 -12 -8 -62 -44 -111 -79 l-89 -64 1 -1591 c1
-1433 2 -1594 17 -1626 19 -43 49 -74 91 -97 30 -17 163 -18 2432 -21 2638 -3
2447 -7 2511 56 63 62 58 -59 59 1688 l2 1590 -228 165 c-126 90 -257 184
-292 209 -35 25 -95 69 -135 97 l-71 53 1 234 1 234 -323 322 c-179 177 -333
326 -345 330 -11 4 -217 7 -458 7 l-438 0 -72 50 c-40 28 -82 55 -95 62 -36
19 -132 23 -175 7z"/>
</g>
</svg>
